<svg xmlns="http://www.w3.org/2000/svg" width="32" height="32" viewBox="0 0 32 32">
  <path d="M8 19H9V17h1l1-.5h6.5V19h2v1.5H15V22H14v7H8Z" fill="#89FF9F" />
  <path
    d="M8 16H9V15h2V14h3V11h1V9.5h4.5V8h-2V5.5H11L10 6H9V8H8Zm14-1V14h1v1Zm1 2V16h1v1Zm0 2V18h1v1Zm-3-3h2v1H21V15H20Zm-4 4V19h1v1Zm0-2V17h1v1Zm-2 0V17h1v1Zm5 2H18V18h1Zm-9-3h1v1h1V17h1v1H12v1h1v1h1V19h1v1H14v1h8V18H21v1H20V18h1V17H20V16H19v1H18V16h1V15H12v1H10Zm3 4h1v1H13Zm-1-1h1v1H12Zm-1-1h1v1H11Zm-1-1h1v1H10ZM9 19h1v1H9Zm0 2h1v1H9Zm2 0h1v1H11ZM9 23h1v1H9Zm2 0h1v1H11Zm0 2h1v1H11Z"
    fill="#8AAFFF" />
  <path
    d="M25 4V3h1V4Zm1 2V5h1V6Zm0 2V7h1V8ZM23 5h2V6H24V4H23ZM18 9V8h1V9ZM16 9V8h1V9Zm0-2V6h1V7ZM14 7V6h1V7Zm8 1H21V7h1ZM10 6h1V7h1V6h1V7H12V8h1V9h1V8h1V9H14v1H25V7H24V8H23V7h1V6H23V5H22V6H21V5h1V4H12V5H10Zm3 4h1v1H13ZM12 9h1v1H12ZM11 8h1V9H11ZM10 7h1V8H10ZM9 8h1V9H9Zm0 2h1v1H9Zm2 0h1v1H11Zm0 2h1v1H11Z"
    fill="#8A89FFFF" />
</svg>
